<?xml version="1.0" encoding="UTF-8"?>
<svg id="Layer_1" data-name="Layer 1" xmlns="http://www.w3.org/2000/svg" viewBox="0 0 36 36">
  <defs>
    <style>
      .cls-1 {
        fill: #09c949;
      }

      .cls-1, .cls-2 {
        stroke-width: 0px;
      }

      .cls-2 {
        fill: #010102;
      }
    </style>
  </defs>
  <rect class="cls-1" width="36" height="36" rx="10" ry="10"/>
  <path class="cls-2" d="M17.62,25.24c-.66-.11-1.29-.2-1.92-.32-1.56-.3-3.11-.65-4.62-1.19-1.19-.42-2.35-.92-3.39-1.66-.85-.62-1.58-1.34-1.87-2.4-.2-.7-.12-1.42-.02-2.12.13-.98.47-1.88,1.09-2.65.22-.27.46-.51.73-.74.47-.4.77-.9.97-1.47.13-.36.26-.72.44-1.06.33-.64.84-1.09,1.56-1.25.69-.15,1.2.24,1.21.92.01.7.29.99.99.95.86-.05,1.65-.46,1.9-1.34.09-.32.15-.64.19-.97.12-.79.32-1.55.85-2.19.69-.85,1.92-1.06,2.76-.46.48.34.59.81.33,1.33-.08.15-.16.3-.22.46-.21.59,0,1.1.54,1.39.48.25.99.3,1.52.29,1.01-.04,1.97-.25,2.77-.91.73-.6.96-1.39.79-2.31-.08-.44-.27-.84-.44-1.24-.49-1.17.25-2,1.31-2.13.95-.11,1.79.19,2.47.82.92.84,1.64,1.84,2.14,2.99.52,1.19.62,2.44.56,3.71-.03.66-.1,1.32-.35,1.94-.44,1.08-1.22,1.85-2.22,2.41-1.11.62-2.31.96-3.55,1.19-1.28.24-2.57.38-3.87.5-1.54.14-3.08.22-4.6.48-.55.09-1.09.22-1.6.46-.93.44-1.03,1.22-.6,2.02.25.46.68.74,1.14.97.85.43,1.77.65,2.7.82,1.36.25,2.73.47,4.1.71,1.23.22,2.44.5,3.62.93.7.25,1.29.66,1.78,1.22.57.64.61,1.56.13,2.43-.54.96-1.35,1.64-2.26,2.21-1.53.96-3.22,1.53-5,1.77-1.23.17-2.45.16-3.65-.21-.39-.12-.77-.29-1.1-.53-.65-.48-.86-1.06-.68-1.85.16-.69.54-1.27.96-1.81.64-.81,1.42-1.46,2.28-2.03.03-.02.06-.04.11-.07Z"/>
</svg>