<?xml version="1.0" encoding="UTF-8" standalone="no"?>
<!-- Created with Inkscape (http://www.inkscape.org/) -->

<svg
   width="209.62148mm"
   height="209.62149mm"
   viewBox="0 0 209.62148 209.62149"
   version="1.1"
   id="svg1"
   xmlns="http://www.w3.org/2000/svg"
   xmlns:svg="http://www.w3.org/2000/svg">
  <defs
     id="defs1" />
  <g
     id="layer3"
     style="display:inline"
     transform="translate(-0.50639511,-21.015346)">
    <rect
       style="display:inline;fill:#1976d2;fill-opacity:1;stroke:none;stroke-width:17.312;stroke-linejoin:round;stroke-opacity:1"
       id="rect1"
       width="209.62148"
       height="209.62148"
       x="0.5063951"
       y="21.015345"
       rx="31.443222"
       ry="31.443222" />
  </g>
  <g
     id="layer1"
     style="display:inline"
     transform="matrix(0.79458347,0,0,0.79458347,11.712046,17.839096)">
    <path
       style="display:inline;mix-blend-mode:normal;fill:#000000;fill-opacity:1;stroke:none;stroke-width:7;stroke-linecap:butt;stroke-linejoin:round;stroke-dasharray:none;stroke-opacity:1;paint-order:normal"
       id="path3"
       d="m 156.61566,215.0483 c -26.32294,13.12104 -58.881589,14.48932 -72.726254,3.05632 -12.440565,-10.27349 1.819871,-30.11359 15.085015,-40.27722 4.860649,-3.72419 5.458619,-4.21753 7.872469,-5.59171 -35.141544,-4.97187 -96.242668,-18.72562 -96.59457,-51.789 -0.245077,-23.02652 9.510243,-32.789921 14.327343,-37.056943 5.692133,-5.042132 5.349472,-5.685096 8.543626,-18.622709 4.53228,-18.357563 27.331635,-16.620331 26.729647,-4.339532 -0.277144,5.653847 5.333736,7.795369 12.677786,5.551143 17.827263,-5.447731 6.9081,-21.89882 19.771391,-36.398764 10.845227,-12.225109 36.976407,-8.401804 31.349377,9.846707 -3.34914,10.86128 2.9196,16.398024 16.25457,13.569994 17.43005,-3.696499 26.72072,-14.506039 17.62672,-33.079352 -9.094,-18.5733135 17.40749,-26.6491864 33.41491,-8.938587 14.44634,15.983421 20.18171,31.206686 18.56964,54.882275 C 205.02718,131.80525 70.6773,98.05222 71.488387,128.29266 c 0.698373,26.03798 59.910803,20.64481 97.136343,35.42243 4.20683,1.67 7.7142,3.96552 10.59147,6.86124 13.84422,11.44455 3.7224,31.35094 -22.60054,44.47197 z" />
  </g>
</svg>
